<svg width="24" height="24" viewBox="0 0 24 24" fill="none" xmlns="http://www.w3.org/2000/svg">
<path d="M20.8742 17.9167V19.2819C20.8742 20.0061 20.5865 20.7006 20.0744 21.2127C19.5624 21.7248 18.8678 22.0125 18.1437 22.0125H4.49107C3.7669 22.0125 3.07238 21.7248 2.56031 21.2127C2.04824 20.7006 1.76056 20.0061 1.76056 19.2819V9.72513C1.76056 9.00095 2.04824 8.30643 2.56031 7.79436C3.07238 7.28229 3.7669 6.99461 4.49107 6.99461H18.1437C18.8678 6.99461 19.5624 7.28229 20.0744 7.79436C20.5865 8.30643 20.8742 9.00095 20.8742 9.72513V11.0904" stroke="#F8F6FF" stroke-width="1.5" stroke-linecap="round" stroke-linejoin="round"/>
<path d="M18.1437 6.9946L16.0239 2.75502C15.9437 2.59459 15.8327 2.45152 15.6972 2.33399C15.5618 2.21646 15.4045 2.12678 15.2343 2.07006C15.0642 2.01335 14.8845 1.99071 14.7056 2.00345C14.5267 2.01619 14.3521 2.06405 14.1917 2.1443L4.49109 6.9946" stroke="#F8F6FF" stroke-width="1.5" stroke-linecap="round" stroke-linejoin="round"/>
<path d="M20.8742 17.9167C21.2363 17.9167 21.5835 17.7728 21.8396 17.5168C22.0956 17.2608 22.2394 16.9135 22.2394 16.5514V12.4557C22.2394 12.0936 22.0956 11.7463 21.8396 11.4903C21.5835 11.2342 21.2363 11.0904 20.8742 11.0904H17.461C16.5558 11.0904 15.6877 11.45 15.0476 12.0901C14.4075 12.7302 14.0479 13.5983 14.0479 14.5035C14.0479 15.4088 14.4075 16.2769 15.0476 16.917C15.6877 17.5571 16.5558 17.9167 17.461 17.9167H20.8742Z" stroke="#F8F6FF" stroke-width="1.5" stroke-linecap="round" stroke-linejoin="round"/>
<path d="M17.461 14.1622C17.5285 14.1622 17.5945 14.1822 17.6507 14.2197C17.7068 14.2572 17.7505 14.3105 17.7764 14.3729C17.8022 14.4353 17.809 14.5039 17.7958 14.5701C17.7826 14.6363 17.7501 14.6971 17.7024 14.7449C17.6546 14.7926 17.5938 14.8251 17.5276 14.8383C17.4614 14.8515 17.3928 14.8447 17.3304 14.8189C17.2681 14.793 17.2147 14.7493 17.1772 14.6932C17.1397 14.637 17.1197 14.571 17.1197 14.5035C17.1197 14.413 17.1557 14.3262 17.2197 14.2622C17.2837 14.1982 17.3705 14.1622 17.461 14.1622" stroke="#F8F6FF" stroke-width="1.5" stroke-linecap="round" stroke-linejoin="round"/>
</svg>
