<svg width="24" height="24" viewBox="0 0 24 24" fill="none" xmlns="http://www.w3.org/2000/svg">
<path fill-rule="evenodd" clip-rule="evenodd" d="M20.7761 9H17.4167C15.9801 9 14.6023 9.57946 13.5865 10.6109C12.5707 11.6424 12 13.0413 12 14.5C12 15.9587 12.5707 17.3576 13.5865 18.3891C14.6023 19.4205 15.9801 20 17.4167 20H20.7781C20.6541 20.4546 20.4135 20.8737 20.0744 21.2127C19.5624 21.7248 18.8678 22.0125 18.1437 22.0125H4.49108C3.7669 22.0125 3.07238 21.7248 2.56031 21.2127C2.04824 20.7006 1.76056 20.0061 1.76056 19.2819V9.72513C1.76056 9.00095 2.04824 8.30643 2.56031 7.79436C3.07238 7.28229 3.7669 6.99461 4.49108 6.99461H18.1437C18.8678 6.99461 19.5624 7.28229 20.0744 7.79436C20.4117 8.13164 20.6516 8.54808 20.7761 9Z" fill="#F8F6FF"/>
<path d="M20.7761 9V9.75C21.0102 9.75 21.2309 9.6407 21.3727 9.45448C21.5146 9.26826 21.5614 9.02649 21.4992 8.80081L20.7761 9ZM13.5865 10.6109L14.1209 11.1372L13.5865 10.6109ZM20.7781 20L21.5017 20.1973C21.5631 19.9717 21.516 19.7305 21.3741 19.5447C21.2322 19.359 21.0118 19.25 20.7781 19.25V20ZM20.0744 21.2127L19.5441 20.6824V20.6824L20.0744 21.2127ZM2.56031 21.2127L3.09064 20.6824L3.09064 20.6824L2.56031 21.2127ZM2.56031 7.79436L3.09064 8.32469L2.56031 7.79436ZM20.0744 7.79436L19.5441 8.32469V8.32469L20.0744 7.79436ZM20.7761 8.25H17.4167V9.75H20.7761V8.25ZM17.4167 8.25C15.7774 8.25 14.2077 8.91131 13.0521 10.0846L14.1209 11.1372C14.997 10.2476 16.1827 9.75 17.4167 9.75V8.25ZM13.0521 10.0846C11.897 11.2576 11.25 12.8461 11.25 14.5H12.75C12.75 13.2366 13.2444 12.0271 14.1209 11.1372L13.0521 10.0846ZM11.25 14.5C11.25 16.1539 11.897 17.7424 13.0521 18.9154L14.1209 17.8628C13.2444 16.9729 12.75 15.7634 12.75 14.5H11.25ZM13.0521 18.9154C14.2077 20.0887 15.7774 20.75 17.4167 20.75V19.25C16.1827 19.25 14.997 18.7524 14.1209 17.8628L13.0521 18.9154ZM17.4167 20.75H20.7781V19.25H17.4167V20.75ZM20.0545 19.8027C19.9646 20.1326 19.79 20.4365 19.5441 20.6824L20.6048 21.743C21.0369 21.3109 21.3437 20.7767 21.5017 20.1973L20.0545 19.8027ZM19.5441 20.6824C19.1727 21.0538 18.6689 21.2625 18.1437 21.2625V22.7625C19.0667 22.7625 19.952 22.3958 20.6048 21.743L19.5441 20.6824ZM18.1437 21.2625H4.49108V22.7625H18.1437V21.2625ZM4.49108 21.2625C3.96581 21.2625 3.46206 21.0538 3.09064 20.6824L2.02998 21.743C2.6827 22.3958 3.56799 22.7625 4.49108 22.7625V21.2625ZM3.09064 20.6824C2.71922 20.311 2.51056 19.8072 2.51056 19.2819H1.01056C1.01056 20.205 1.37726 21.0903 2.02998 21.743L3.09064 20.6824ZM2.51056 19.2819V9.72513H1.01056V19.2819H2.51056ZM2.51056 9.72513C2.51056 9.19986 2.71922 8.69611 3.09064 8.32469L2.02998 7.26403C1.37726 7.91676 1.01056 8.80204 1.01056 9.72513H2.51056ZM3.09064 8.32469C3.46206 7.95327 3.96581 7.74461 4.49108 7.74461V6.24461C3.56798 6.24461 2.6827 6.61131 2.02998 7.26403L3.09064 8.32469ZM4.49108 7.74461H18.1437V6.24461H4.49108V7.74461ZM18.1437 7.74461C18.6689 7.74461 19.1727 7.95328 19.5441 8.32469L20.6048 7.26403C19.952 6.61131 19.0667 6.24461 18.1437 6.24461V7.74461ZM19.5441 8.32469C19.7887 8.56932 19.9627 8.87134 20.0531 9.19919L21.4992 8.80081C21.3405 8.22481 21.0347 7.69397 20.6048 7.26403L19.5441 8.32469Z" fill="#F8F6FF"/>
<path d="M17 4.5L16.0239 2.75502C15.9437 2.59459 15.8327 2.45152 15.6972 2.33399C15.5618 2.21646 15.4045 2.12678 15.2343 2.07006C15.0642 2.01335 14.8845 1.99071 14.7056 2.00345C14.5267 2.01619 14.3521 2.06405 14.1917 2.1443L9.5 4.5" fill="#F8F6FF"/>
<path d="M17 4.5L16.0239 2.75502C15.9437 2.59459 15.8327 2.45152 15.6972 2.33399C15.5618 2.21646 15.4045 2.12678 15.2343 2.07006C15.0642 2.01335 14.8845 1.99071 14.7056 2.00345C14.5267 2.01619 14.3521 2.06405 14.1917 2.1443L9.5 4.5H17Z" stroke="#F8F6FF" stroke-width="1.5" stroke-linecap="round" stroke-linejoin="round"/>
<path fill-rule="evenodd" clip-rule="evenodd" d="M22.5607 17.5899C22.2794 17.8525 21.8978 18 21.5 18H17.75C16.7554 18 15.8016 17.6313 15.0983 16.9749C14.3951 16.3185 14 15.4283 14 14.5C14 13.5717 14.3951 12.6815 15.0983 12.0251C15.8016 11.3687 16.7554 11 17.75 11H21.5C21.8978 11 22.2794 11.1475 22.5607 11.4101C22.842 11.6726 23 12.0287 23 12.4V16.6C23 16.9713 22.842 17.3274 22.5607 17.5899ZM18.3334 13.2528C18.0867 13.088 17.7967 13 17.5 13C17.1022 13 16.7206 13.158 16.4393 13.4393C16.158 13.7206 16 14.1022 16 14.5C16 14.7967 16.088 15.0867 16.2528 15.3334C16.4176 15.58 16.6519 15.7723 16.926 15.8858C17.2001 15.9994 17.5017 16.0291 17.7926 15.9712C18.0836 15.9133 18.3509 15.7704 18.5607 15.5607C18.7704 15.3509 18.9133 15.0836 18.9712 14.7926C19.0291 14.5017 18.9994 14.2001 18.8858 13.926C18.7723 13.6519 18.58 13.4176 18.3334 13.2528Z" fill="#F8F6FF"/>
</svg>
