<svg width="24" height="24" viewBox="0 0 24 24" fill="none" xmlns="http://www.w3.org/2000/svg">
<circle cx="19.5" cy="4.5" r="4.5" fill="#1CB3BD"/>
<path fill-rule="evenodd" clip-rule="evenodd" d="M22 11.5732C21.2181 11.8496 20.3766 12 19.5 12C15.3579 12 12 8.64214 12 4.5C12 3.58592 12.1635 2.71003 12.4629 1.89999H3.33333C2.97971 1.89999 2.64057 2.04197 2.39052 2.29468C2.14048 2.5474 2 2.89015 2 3.24754V16.723C2 17.0804 2.14048 17.4232 2.39052 17.6759C2.64057 17.9286 2.97971 18.0706 3.33333 18.0706H6V22.1133L11.3333 18.0706H20.6667C21.0203 18.0706 21.3594 17.9286 21.6095 17.6759C21.8595 17.4232 22 17.0804 22 16.723V11.5732Z" fill="#F8F6FF"/>
<path d="M22 11.5732H22.75C22.75 11.3298 22.6318 11.1015 22.433 10.9609C22.2343 10.8203 21.9796 10.785 21.7501 10.8661L22 11.5732ZM12.4629 1.89999L13.1664 2.16C13.2515 1.92986 13.2186 1.67267 13.0783 1.47134C12.9381 1.27001 12.7083 1.14999 12.4629 1.14999V1.89999ZM2.39052 2.29468L1.85739 1.76717L1.85739 1.76717L2.39052 2.29468ZM2.39052 17.6759L1.85739 18.2034L1.85739 18.2034L2.39052 17.6759ZM6 18.0706H6.75C6.75 17.6564 6.41421 17.3206 6 17.3206V18.0706ZM6 22.1133H5.25C5.25 22.398 5.41127 22.6582 5.6663 22.7849C5.92133 22.9116 6.22611 22.883 6.45305 22.7109L6 22.1133ZM11.3333 18.0706V17.3206C11.1697 17.3206 11.0106 17.3741 10.8803 17.4729L11.3333 18.0706ZM21.6095 17.6759L22.1426 18.2034H22.1426L21.6095 17.6759ZM21.7501 10.8661C21.0473 11.1145 20.2903 11.25 19.5 11.25V12.75C20.4629 12.75 21.3888 12.5847 22.2499 12.2804L21.7501 10.8661ZM19.5 11.25C15.7721 11.25 12.75 8.22792 12.75 4.5H11.25C11.25 9.05635 14.9437 12.75 19.5 12.75V11.25ZM12.75 4.5C12.75 3.67597 12.8973 2.88804 13.1664 2.16L11.7594 1.63998C11.4297 2.53202 11.25 3.49587 11.25 4.5H12.75ZM3.33333 2.64999H12.4629V1.14999H3.33333V2.64999ZM2.92366 2.82219C3.03368 2.711 3.18121 2.64999 3.33333 2.64999V1.14999C2.77822 1.14999 2.24746 1.37294 1.85739 1.76717L2.92366 2.82219ZM2.75 3.24754C2.75 3.08651 2.81337 2.93366 2.92366 2.82219L1.85739 1.76717C1.46758 2.16114 1.25 2.69379 1.25 3.24754H2.75ZM2.75 16.723V3.24754H1.25V16.723H2.75ZM2.92366 17.1484C2.81337 17.0369 2.75 16.8841 2.75 16.723H1.25C1.25 17.2768 1.46758 17.8095 1.85739 18.2034L2.92366 17.1484ZM3.33333 17.3206C3.18121 17.3206 3.03368 17.2596 2.92366 17.1484L1.85739 18.2034C2.24746 18.5977 2.77822 18.8206 3.33333 18.8206V17.3206ZM6 17.3206H3.33333V18.8206H6V17.3206ZM6.75 22.1133V18.0706H5.25V22.1133H6.75ZM10.8803 17.4729L5.54695 21.5156L6.45305 22.7109L11.7864 18.6683L10.8803 17.4729ZM20.6667 17.3206H11.3333V18.8206H20.6667V17.3206ZM21.0763 17.1484C20.9663 17.2596 20.8188 17.3206 20.6667 17.3206V18.8206C21.2218 18.8206 21.7525 18.5977 22.1426 18.2034L21.0763 17.1484ZM21.25 16.723C21.25 16.8841 21.1866 17.0369 21.0763 17.1484L22.1426 18.2034C22.5324 17.8095 22.75 17.2768 22.75 16.723H21.25ZM21.25 11.5732V16.723H22.75V11.5732H21.25Z" fill="#F8F6FF"/>
</svg>
