<svg width="24" height="24" viewBox="0 0 24 24" fill="none" xmlns="http://www.w3.org/2000/svg">
<path d="M20.6667 18.0706H11.3333L6 22.1133V18.0706H3.33333C2.97971 18.0706 2.64057 17.9286 2.39052 17.6759C2.14048 17.4232 2 17.0804 2 16.723V3.24754C2 2.89015 2.14048 2.5474 2.39052 2.29468C2.64057 2.04197 2.97971 1.89999 3.33333 1.89999H20.6667C21.0203 1.89999 21.3594 2.04197 21.6095 2.29468C21.8595 2.5474 22 2.89015 22 3.24754V16.723C22 17.0804 21.8595 17.4232 21.6095 17.6759C21.3594 17.9286 21.0203 18.0706 20.6667 18.0706Z" fill="#F8F6FF" stroke="#F8F6FF" stroke-width="1.5" stroke-linecap="round" stroke-linejoin="round"/>
</svg>
