<svg width="24" height="24" viewBox="0 0 24 24" fill="none" xmlns="http://www.w3.org/2000/svg">
    <path fill-rule="evenodd" clip-rule="evenodd" d="M3.50527 5L10.5031 10.4789L10.5031 10.4789C10.9342 10.8165 11.4604 10.9979 11.9996 10.9979C12.5388 10.9979 13.0649 10.8165 13.496 10.4789L13.4961 10.4789L20.4939 5H3.50527ZM23.4409 3.98219C23.4378 3.97812 23.4347 3.97407 23.4315 3.97003C23.4231 3.9593 23.4145 3.94878 23.4058 3.93848C22.9369 3.36735 22.2295 3 21.428 3H2.57139C1.77335 3 1.06855 3.36424 0.599604 3.93121C0.588689 3.94382 0.578028 3.95676 0.567635 3.97003C0.562451 3.97665 0.557364 3.98332 0.552373 3.99003C0.205513 4.43496 0 4.99569 0 5.59956V18.3961C0 19.8149 1.13457 20.9956 2.57139 20.9956H21.428C22.8648 20.9956 23.9994 19.8149 23.9994 18.3961V5.59956C23.9994 4.99213 23.7915 4.42836 23.4409 3.98219ZM21.9994 6.36135L14.7291 12.0536L14.729 12.0536C13.9486 12.6648 12.989 12.9979 11.9996 12.9979C11.0101 12.9979 10.0505 12.6648 9.27005 12.0536L2 6.36154V18.3961C2 18.744 2.2725 18.9956 2.57139 18.9956H21.428C21.7269 18.9956 21.9994 18.744 21.9994 18.3961V6.36135Z" fill="#02AD70"/>
</svg>
