<svg width="24" height="24" viewBox="0 0 24 24" fill="none" xmlns="http://www.w3.org/2000/svg">
<path d="M22.7316 11.3518L12.6481 1.26839C12.4762 1.09654 12.2431 1 12 1C11.7569 1 11.5238 1.09654 11.3519 1.26839L1.26839 11.3518C1.14023 11.48 1.05296 11.6433 1.0176 11.8211C0.982249 11.9989 1.0004 12.1832 1.06977 12.3507C1.13913 12.5181 1.2566 12.6613 1.40731 12.762C1.55802 12.8628 1.73521 12.9165 1.91649 12.9166H3.06234C3.12312 12.9166 3.18141 12.9407 3.22439 12.9837C3.26737 13.0267 3.29151 13.085 3.29151 13.1457V22.0833C3.29151 22.3264 3.38809 22.5596 3.56 22.7315C3.73191 22.9034 3.96508 23 4.20819 23H9.47912C9.5399 23 9.59819 22.9759 9.64117 22.9329C9.68415 22.8899 9.70829 22.8316 9.70829 22.7708V18.4166C9.70829 17.8088 9.94974 17.2259 10.3795 16.7962C10.8093 16.3664 11.3922 16.1249 12 16.1249C12.6078 16.1249 13.1907 16.3664 13.6205 16.7962C14.0503 17.2259 14.2917 17.8088 14.2917 18.4166V22.7708C14.2917 22.8316 14.3159 22.8899 14.3588 22.9329C14.4018 22.9759 14.4601 23 14.5209 23H19.7918C20.0349 23 20.2681 22.9034 20.44 22.7315C20.6119 22.5596 20.7085 22.3264 20.7085 22.0833V13.1457C20.7085 13.085 20.7326 13.0267 20.7756 12.9837C20.8186 12.9407 20.8769 12.9166 20.9377 12.9166H22.0835C22.2648 12.9165 22.442 12.8628 22.5927 12.762C22.7434 12.6613 22.8609 12.5181 22.9302 12.3507C22.9996 12.1832 23.0177 11.9989 22.9824 11.8211C22.947 11.6433 22.8598 11.48 22.7316 11.3518Z" fill="#F8F6FF"/>
</svg>
