<svg width="24" height="24" viewBox="0 0 24 24" fill="none" xmlns="http://www.w3.org/2000/svg">
<path fill-rule="evenodd" clip-rule="evenodd" d="M13.7326 6.77675C14.2299 6.2794 14.9045 6 15.6078 6C16.3112 6 16.9857 6.2794 17.483 6.77675C17.9804 7.27409 18.2598 7.94863 18.2598 8.65198C18.2598 9.35532 17.9804 10.0299 17.483 10.5272L13.6095 14.4007L13.609 14.4013C13.1373 14.8737 12.5048 15.1509 11.8377 15.1775C11.1706 15.204 10.518 14.978 10.0103 14.5445C9.50257 14.111 9.177 13.502 9.09862 12.839C9.02023 12.176 9.19478 11.5078 9.58743 10.9679C9.91224 10.5212 9.81347 9.89581 9.3668 9.57099C8.92013 9.24618 8.29472 9.34495 7.9699 9.79162C7.28114 10.7388 6.97494 11.9108 7.11245 13.0738C7.24996 14.2368 7.82104 15.3052 8.7117 16.0656C9.60235 16.8259 10.747 17.2224 11.9172 17.1759C13.0872 17.1293 14.1966 16.6432 15.024 15.8147L15.0243 15.8144L18.8973 11.9414C19.7697 11.069 20.2598 9.88576 20.2598 8.65198C20.2598 7.4182 19.7697 6.23495 18.8973 5.36253C18.0248 4.49012 16.8416 4 15.6078 4C14.374 4 13.1908 4.49012 12.3184 5.36253L11.7097 5.97119C11.3192 6.36172 11.3192 6.99488 11.7097 7.3854C12.1002 7.77593 12.7334 7.77593 13.1239 7.38541L13.7326 6.77675ZM8.42231 8.82088C9.08946 8.79417 9.74213 9.0201 10.25 9.45355C10.7578 9.887 11.0835 10.4961 11.162 11.1591C11.2404 11.8222 11.0659 12.4904 10.6732 13.0304C10.3484 13.4771 10.4471 14.1025 10.8938 14.4273C11.3405 14.7521 11.9659 14.6534 12.2907 14.2067C12.9795 13.2595 13.2857 12.0872 13.1481 10.9241C13.0105 9.76103 12.4392 8.69263 11.5484 7.93229C10.6575 7.17195 9.5126 6.77563 8.34231 6.82248C7.17223 6.86932 6.06285 7.35573 5.23566 8.18459L5.23524 8.18501L1.36253 12.0585L1.36246 12.0586C0.49009 12.931 0 14.1142 0 15.348C0 16.5817 0.490118 17.765 1.36253 18.6374C2.23495 19.5098 3.4182 19.9999 4.65198 19.9999C5.88576 19.9999 7.06901 19.5098 7.94142 18.6374L8.69778 17.8811C9.08831 17.4905 9.08831 16.8574 8.69778 16.4668C8.30726 16.0763 7.67409 16.0763 7.28357 16.4668L6.52721 17.2232C6.02987 17.7205 5.35532 17.9999 4.65198 17.9999C3.94863 17.9999 3.27409 17.7205 2.77675 17.2232C2.2794 16.7259 2 16.0513 2 15.348C2 14.6446 2.2794 13.9701 2.77675 13.4727L2.77682 13.4727L6.65033 9.59834L6.65105 9.59762C7.12264 9.12496 7.75516 8.84759 8.42231 8.82088Z" fill="#F8F6FF"/>
</svg>
