<svg width="26" height="26" viewBox="0 0 26 26" fill="none" xmlns="http://www.w3.org/2000/svg">
<path fill-rule="evenodd" clip-rule="evenodd" d="M4.85381 2.75C4.28652 2.75 3.74879 2.9684 3.35732 3.34727C2.96696 3.72505 2.75395 4.23033 2.75395 4.75V18.75H15.7033C16.2556 18.75 16.7033 19.1977 16.7033 19.75V21.25C16.7033 22.3216 16.2631 23.3425 15.4908 24.0899C14.7196 24.8363 13.6804 25.25 12.6035 25.25H4.85381C3.77683 25.25 2.73764 24.8363 1.96644 24.0899C1.19413 23.3425 0.753952 22.3216 0.753952 21.25V19.75V4.75C0.753952 3.67837 1.19413 2.65753 1.96644 1.91009C2.73764 1.16374 3.77683 0.75 4.85381 0.75H12.6035C13.6804 0.75 14.7196 1.16374 15.4908 1.91009C16.2631 2.65753 16.7033 3.67837 16.7033 4.75V6.25C16.7033 6.80228 16.2556 7.25 15.7033 7.25C15.151 7.25 14.7033 6.80228 14.7033 6.25V4.75C14.7033 4.23033 14.4903 3.72505 14.1 3.34727C13.7085 2.9684 13.1708 2.75 12.6035 2.75H4.85381ZM2.75395 20.75V21.25C2.75395 21.7697 2.96696 22.2749 3.35732 22.6527C3.74879 23.0316 4.28652 23.25 4.85381 23.25H12.6035C13.1708 23.25 13.7085 23.0316 14.1 22.6527C14.4903 22.2749 14.7033 21.7697 14.7033 21.25V20.75H2.75395ZM13.6038 10.25C13.6038 9.69771 14.0515 9.25 14.6038 9.25H17.7037C18.256 9.25 18.7037 9.69771 18.7037 10.25C18.7037 10.8023 18.256 11.25 17.7037 11.25H14.6038C14.0515 11.25 13.6038 10.8023 13.6038 10.25ZM17.2789 13.25C16.7266 13.25 16.2789 13.6977 16.2789 14.25C16.2789 14.8023 16.7266 15.25 17.2789 15.25H24.2536C24.8059 15.25 25.2536 14.8023 25.2536 14.25C25.2536 13.6977 24.8059 13.25 24.2536 13.25H17.2789ZM13.1791 14.25C13.1791 13.6977 13.6268 13.25 14.1791 13.25H14.9537C15.506 13.25 15.9537 13.6977 15.9537 14.25C15.9537 14.8023 15.506 15.25 14.9537 15.25H14.1791C13.6268 15.25 13.1791 14.8023 13.1791 14.25ZM11.504 9.25C10.9517 9.25 10.504 9.69771 10.504 10.25C10.504 10.8023 10.9517 11.25 11.504 11.25H12.2786C12.8308 11.25 13.2786 10.8023 13.2786 10.25C13.2786 9.69771 12.8308 9.25 12.2786 9.25H11.504Z" fill="#4A4A6A"/>
</svg>
