<svg width="24" height="24" viewBox="0 0 24 24" fill="none" xmlns="http://www.w3.org/2000/svg">
<path d="M12 2.5C13.8944 2.5 15.7112 3.26623 17.0508 4.63013C18.3903 5.99403 19.1428 7.84388 19.1428 9.77273V15.5909C19.1428 16.3624 19.4439 17.1024 19.9797 17.6479C20.5155 18.1935 20.5 18.5 20.5 18.5H3.5C3.5 18.5 3.48447 18.1935 4.02029 17.6479C4.55611 17.1024 4.85713 16.3624 4.85713 15.5909V9.77273C4.85713 7.84388 5.60968 5.99403 6.94922 4.63013C8.28877 3.26623 10.1056 2.5 12 2.5Z" stroke="#F8F6FF" stroke-width="2" stroke-linecap="round" stroke-linejoin="round"/>
<path d="M13 20C13 20.1978 12.9414 20.3911 12.8315 20.5556C12.7216 20.72 12.5654 20.8482 12.3827 20.9239C12.2 20.9996 11.9989 21.0194 11.8049 20.9808C11.6109 20.9422 11.4327 20.847 11.2929 20.7071C11.153 20.5673 11.0578 20.3891 11.0192 20.1951C11.0064 20.1305 11 20.0652 11 20" stroke="#F8F6FF" stroke-width="3" stroke-linecap="round" stroke-linejoin="round"/>
</svg>
