<svg width="24" height="24" viewBox="0 0 24 24" fill="none" xmlns="http://www.w3.org/2000/svg">
    <path d="M21.2745 9.69409V14.3075C21.2745 14.3075 21.2631 14.7756 20.8 14.7756H15.3957V18.9169C15.3957 18.9169 15.3957 19.385 14.9212 19.385H9.51694V23.5319C9.51694 23.7864 9.29876 24 9.04245 24H3.16449C2.90656 24 2.69 23.7848 2.69 23.5319V18.9169C2.69 18.9169 2.70298 18.4489 3.16449 18.4489H8.56878V14.7748H3.16449C3.16449 14.7748 2.73948 14.7876 2.69 14.3067V9.69329C2.69 9.69329 2.69162 9.22523 3.16449 9.22523C3.63735 9.22523 8.56878 9.22523 8.56878 9.22523V5.53354H3.14908C2.69244 5.53354 2.69 5.08068 2.69 5.08068V0.468062C2.69 0.015202 3.16449 0 3.16449 0H9.04326C9.50234 0 9.51775 0.468062 9.51775 0.468062V4.61181H14.922C14.922 4.61181 15.3965 4.64382 15.3965 5.07988V9.22683H20.8008C20.8 9.22603 21.2745 9.24123 21.2745 9.69409ZM14.4475 13.8354V10.1614H9.51694V13.8354H14.4475Z" fill="#FF6D6D"/>
</svg>
