<svg width="24" height="24" viewBox="0 0 24 24" fill="none" xmlns="http://www.w3.org/2000/svg">
<path d="M15.3957 14.0256H15.1975V13.8354V10.1614V9.97683H15.3965H20.5245V14.0256H15.3957ZM14.4475 14.5854H14.6457V14.7756V18.635H9.51694H9.31878V18.4489V14.7748V14.5854H9.51694H14.4475ZM8.56878 19.1989H8.76694V19.385V23.25H3.44V19.1989H8.56878ZM8.56878 14.0248H3.44V9.97523H3.44425H3.45188H3.45959H3.46737H3.47524H3.48318H3.49121H3.49931H3.50748H3.51574H3.52406H3.53247H3.54095H3.5495H3.55813H3.56683H3.57561H3.58446H3.59338H3.60238H3.61144H3.62058H3.62979H3.63907H3.64842H3.65783H3.66732H3.67688H3.6865H3.6962H3.70596H3.71579H3.72568H3.73564H3.74567H3.75576H3.76592H3.77615H3.78643H3.79678H3.8072H3.81768H3.82822H3.83882H3.84948H3.86021H3.87099H3.88184H3.89275H3.90371H3.91474H3.92582H3.93696H3.94817H3.95942H3.97074H3.98211H3.99354H4.00502H4.01656H4.02816H4.03981H4.05151H4.06327H4.07508H4.08694H4.09886H4.11083H4.12285H4.13492H4.14704H4.15921H4.17144H4.18371H4.19603H4.2084H4.22082H4.23328H4.2458H4.25836H4.27097H4.28362H4.29632H4.30906H4.32185H4.33469H4.34756H4.36049H4.37345H4.38646H4.39951H4.4126H4.42574H4.43891H4.45213H4.46539H4.47868H4.49202H4.50539H4.51881H4.53226H4.54575H4.55928H4.57284H4.58644H4.60008H4.61375H4.62746H4.6412H4.65498H4.66879H4.68263H4.69651H4.71042H4.72437H4.73834H4.75235H4.76639H4.78046H4.79455H4.80868H4.82284H4.83703H4.85124H4.86549H4.87976H4.89406H4.90838H4.92274H4.93712H4.95152H4.96595H4.9804H4.99488H5.00938H5.02391H5.03846H5.05303H5.06763H5.08224H5.09688H5.11154H5.12622H5.14092H5.15564H5.17037H5.18513H5.19991H5.2147H5.22951H5.24434H5.25919H5.27405H5.28893H5.30382H5.31873H5.33365H5.34859H5.36354H5.37851H5.39349H5.40848H5.42348H5.4385H5.45352H5.46856H5.48361H5.49867H5.51374H5.52881H5.5439H5.55899H5.57409H5.5892H5.60432H5.61945H5.63458H5.64971H5.66485H5.68H5.69515H5.71031H5.72547H5.74063H5.7558H5.77096H5.78614H5.80131H5.81648H5.83166H5.84683H5.86201H5.87718H5.89235H5.90753H5.9227H5.93787H5.95303H5.9682H5.98336H5.99851H6.01367H6.02881H6.04396H6.05909H6.07423H6.08935H6.10447H6.11958H6.13469H6.14978H6.16487H6.17995H6.19502H6.21008H6.22513H6.24017H6.2552H6.27022H6.28522H6.30021H6.3152H6.33016H6.34512H6.36006H6.37499H6.3899H6.4048H6.41968H6.43454H6.44939H6.46423H6.47904H6.49384H6.50862H6.52338H6.53812H6.55285H6.56755H6.58223H6.5969H6.61154H6.62616H6.64076H6.65533H6.66989H6.68442H6.69893H6.71341H6.72787H6.74231H6.75672H6.7711H6.78546H6.79979H6.81409H6.82837H6.84262H6.85684H6.87104H6.8852H6.89934H6.91344H6.92752H6.94156H6.95557H6.96956H6.98351H6.99743H7.01131H7.02516H7.03898H7.05277H7.06652H7.08023H7.09391H7.10756H7.12116H7.13474H7.14827H7.16177H7.17523H7.18865H7.20204H7.21538H7.22869H7.24195H7.25518H7.26836H7.2815H7.2946H7.30766H7.32068H7.33366H7.34659H7.35948H7.37232H7.38512H7.39787H7.41058H7.42325H7.43586H7.44843H7.46096H7.47343H7.48586H7.49824H7.51058H7.52286H7.53509H7.54727H7.55941H7.57149H7.58352H7.5955H7.60743H7.6193H7.63113H7.64289H7.65461H7.66627H7.67788H7.68943H7.70093H7.71237H7.72375H7.73508H7.74635H7.75756H7.76872H7.77981H7.79085H7.80183H7.81275H7.82361H7.83441H7.84515H7.85583H7.86644H7.87699H7.88749H7.89791H7.90828H7.91858H7.92882H7.93899H7.9491H7.95914H7.96911H7.97902H7.98886H7.99864H8.00835H8.01799H8.02756H8.03706H8.0465H8.05586H8.06516H8.07438H8.08353H8.09261H8.10162H8.11056H8.11943H8.12822H8.13694H8.14558H8.15415H8.16265H8.17107H8.17941H8.18768H8.19588H8.20399H8.21203H8.21999H8.22788H8.23568H8.24341H8.25105H8.25862H8.26611H8.27351H8.28084H8.28808H8.29525H8.30233H8.30932H8.31624H8.32307H8.32982H8.33648H8.34306H8.34955H8.35596H8.36228H8.36851H8.37466H8.38072H8.38669H8.39258H8.39837H8.40408H8.4097H8.41523H8.42066H8.42601H8.43127H8.43643H8.4415H8.44649H8.45137H8.45617H8.46087H8.46548H8.46999H8.47441H8.47873H8.48296H8.48709H8.49112H8.49506H8.4989H8.50264H8.50629H8.50983H8.51328H8.51663H8.51987H8.52302H8.52607H8.52901H8.53185H8.5346H8.53724H8.53977H8.54221H8.54454H8.54676H8.54888H8.5509H8.55281H8.55461H8.55631H8.55791H8.55939H8.56077H8.56204H8.5632H8.56426H8.5652H8.56603H8.56676H8.56737H8.56788H8.56827H8.56855H8.56872L8.56878 9.22523V9.97523H8.76694V10.1614V13.8354V14.0248H8.56878ZM8.56878 4.78354H3.44V0.75H8.76775V4.61181V4.78354H8.56878ZM9.31878 5.53354V5.36181H9.51775H14.6465V9.22683V9.41136H14.4475H9.51694H9.31878V9.22523V5.53354Z" stroke="#F8F6FF" stroke-width="1.5"/>
</svg>
