<svg width="24" height="24" viewBox="0 0 24 24" fill="none" xmlns="http://www.w3.org/2000/svg">
<path d="M2.92683 15.5501C2.57359 15.5501 2.22995 15.4351 1.94783 15.2225C1.66572 15.01 1.46045 14.7113 1.36306 14.3718C1.26567 14.0322 1.28144 13.6702 1.40799 13.3404C1.53453 13.0106 1.76499 12.731 2.06452 12.5437L20.1349 1.24764C20.403 1.07988 20.7142 0.993934 21.0304 1.00033C21.3465 1.00673 21.654 1.10519 21.915 1.28366C22.1761 1.46213 22.3794 1.71286 22.5002 2.00514C22.6209 2.29742 22.6538 2.61856 22.5948 2.92924L19.0751 21.6743C19.0167 21.9844 18.8694 22.2708 18.6511 22.4987C18.4327 22.7265 18.1529 22.886 17.8455 22.9576C17.5382 23.0292 17.2167 23.0098 16.9201 22.9019C16.6236 22.794 16.3648 22.6022 16.1753 22.3498L11.0816 15.5501H2.92683Z" stroke="#F8F6FF" stroke-width="2" stroke-linecap="round" stroke-linejoin="round"/>
<path d="M11.0816 15.5501H8.63744V20.6057C8.63743 20.9014 8.71807 21.1916 8.87071 21.4449C9.02334 21.6982 9.24218 21.9051 9.50366 22.0432C9.76514 22.1814 10.0594 22.2457 10.3546 22.2291C10.6499 22.2125 10.9351 22.1156 11.1794 21.949L14.2865 19.8313L11.0816 15.5501Z" stroke="#F8F6FF" stroke-width="2" stroke-linecap="round" stroke-linejoin="round"/>
<path d="M11.0807 15.5501L21.9133 1.28577" stroke="#F8F6FF" stroke-width="2" stroke-linecap="round" stroke-linejoin="round"/>
</svg>
