<svg width="24" height="24" viewBox="0 0 24 24" fill="none" xmlns="http://www.w3.org/2000/svg">
<path fill-rule="evenodd" clip-rule="evenodd" d="M19 7H11.8293C11.4175 5.83481 10.3062 5 9 5C7.69378 5 6.58254 5.83481 6.17071 7H5C4.44772 7 4 7.44772 4 8C4 8.55228 4.44772 9 5 9H6.17071C6.58254 10.1652 7.69378 11 9 11C10.3062 11 11.4175 10.1652 11.8293 9H19C19.5523 9 20 8.55228 20 8C20 7.44772 19.5523 7 19 7ZM9 9C9.55228 9 10 8.55228 10 8C10 7.44772 9.55228 7 9 7C8.44772 7 8 7.44772 8 8C8 8.55228 8.44772 9 9 9Z" fill="#F8F6FF"/>
<path fill-rule="evenodd" clip-rule="evenodd" d="M19 15H17.8293C17.4175 13.8348 16.3062 13 15 13C13.6938 13 12.5825 13.8348 12.1707 15H5C4.44772 15 4 15.4477 4 16C4 16.5523 4.44772 17 5 17H12.1707C12.5825 18.1652 13.6938 19 15 19C16.3062 19 17.4175 18.1652 17.8293 17H19C19.5523 17 20 16.5523 20 16C20 15.4477 19.5523 15 19 15ZM15 17C15.5523 17 16 16.5523 16 16C16 15.4477 15.5523 15 15 15C14.4477 15 14 15.4477 14 16C14 16.5523 14.4477 17 15 17Z" fill="#F8F6FF"/>
</svg>
