<svg width="24" height="24" viewBox="0 0 24 24" fill="none" xmlns="http://www.w3.org/2000/svg">
<path d="M18.6015 22.7149H5.39851C5.08939 22.7093 4.79122 22.5994 4.55232 22.4032C4.31341 22.207 4.14776 21.9358 4.08221 21.6337L2.04731 13.0677C1.99284 12.8626 1.98529 12.6478 2.02525 12.4393C2.06521 12.2308 2.15164 12.0341 2.27812 11.8636C2.4046 11.6931 2.56787 11.5534 2.7558 11.4547C2.94373 11.356 3.15148 11.3009 3.36362 11.2936H20.6364C20.8485 11.3009 21.0563 11.356 21.2442 11.4547C21.4321 11.5534 21.5954 11.6931 21.7219 11.8636C21.8484 12.0341 21.9348 12.2308 21.9748 12.4393C22.0147 12.6478 22.0072 12.8626 21.9527 13.0677L19.9178 21.6337C19.8522 21.9358 19.6866 22.207 19.4477 22.4032C19.2088 22.5994 18.9106 22.7093 18.6015 22.7149V22.7149Z" stroke="#F8F6FF" stroke-width="2" stroke-linecap="round" stroke-linejoin="round"/>
<path d="M7.71704 14.1489V19.8596" stroke="#F8F6FF" stroke-width="2" stroke-linecap="round" stroke-linejoin="round"/>
<path d="M12 14.1489V19.8596" stroke="#F8F6FF" stroke-width="2" stroke-linecap="round" stroke-linejoin="round"/>
<path d="M16.283 14.1489V19.8596" stroke="#F8F6FF" stroke-width="2" stroke-linecap="round" stroke-linejoin="round"/>
<path d="M9.1447 2.49542C7.83506 2.91334 6.67197 3.69649 5.79219 4.7528C4.91241 5.80911 4.35252 7.09466 4.17834 8.45828" stroke="#F8F6FF" stroke-width="2" stroke-linecap="round" stroke-linejoin="round"/>
<path d="M19.8245 8.49445C19.6573 7.12377 19.1002 5.8299 18.2193 4.7665C17.3385 3.7031 16.1709 2.91487 14.8553 2.49542" stroke="#F8F6FF" stroke-width="2" stroke-linecap="round" stroke-linejoin="round"/>
<path d="M13.7846 1.3H10.2154C9.62407 1.3 9.14468 1.77939 9.14468 2.37075V3.08458C9.14468 3.67593 9.62407 4.15532 10.2154 4.15532H13.7846C14.3759 4.15532 14.8553 3.67593 14.8553 3.08458V2.37075C14.8553 1.77939 14.3759 1.3 13.7846 1.3Z" stroke="#F8F6FF" stroke-width="2" stroke-linecap="round" stroke-linejoin="round"/>
</svg>
