<svg width="24" height="24" viewBox="0 0 24 24" fill="none" xmlns="http://www.w3.org/2000/svg">
<path fill-rule="evenodd" clip-rule="evenodd" d="M5.39851 22.7149H18.6015C18.9106 22.7093 19.2088 22.5994 19.4477 22.4032C19.6866 22.207 19.8522 21.9358 19.9178 21.6337L21.9527 13.0677C22.0072 12.8626 22.0147 12.6478 21.9748 12.4393C21.9348 12.2308 21.8484 12.0341 21.7219 11.8636C21.5954 11.6931 21.4321 11.5534 21.2442 11.4547C21.0563 11.356 20.8485 11.3009 20.6364 11.2936H3.36362C3.15148 11.3009 2.94373 11.356 2.7558 11.4547C2.56787 11.5534 2.4046 11.6931 2.27812 11.8636C2.15164 12.0341 2.06521 12.2308 2.02525 12.4393C1.98529 12.6478 1.99284 12.8626 2.04731 13.0677L4.08221 21.6337C4.14776 21.9358 4.31341 22.207 4.55232 22.4032C4.79122 22.5994 5.08939 22.7093 5.39851 22.7149ZM8.71703 14.1489C8.71703 13.5967 8.26931 13.1489 7.71703 13.1489C7.16474 13.1489 6.71703 13.5967 6.71703 14.1489V19.8596C6.71703 20.4119 7.16474 20.8596 7.71703 20.8596C8.26931 20.8596 8.71703 20.4119 8.71703 19.8596V14.1489ZM13 14.1489C13 13.5967 12.5523 13.1489 12 13.1489C11.4477 13.1489 11 13.5967 11 14.1489V19.8596C11 20.4119 11.4477 20.8596 12 20.8596C12.5523 20.8596 13 20.4119 13 19.8596V14.1489ZM16.283 13.1489C16.8353 13.1489 17.283 13.5967 17.283 14.1489V19.8596C17.283 20.4119 16.8353 20.8596 16.283 20.8596C15.7307 20.8596 15.283 20.4119 15.283 19.8596V14.1489C15.283 13.5967 15.7307 13.1489 16.283 13.1489Z" fill="#F8F6FF"/>
<path d="M9.1447 2.49542C7.83506 2.91334 6.67197 3.69649 5.79219 4.7528C4.91241 5.80911 4.35252 7.09466 4.17834 8.45828" stroke="#F8F6FF" stroke-width="2" stroke-linecap="round" stroke-linejoin="round"/>
<path d="M19.8245 8.49445C19.6573 7.12377 19.1002 5.8299 18.2193 4.7665C17.3385 3.7031 16.1709 2.91487 14.8553 2.49542" stroke="#F8F6FF" stroke-width="2" stroke-linecap="round" stroke-linejoin="round"/>
<path d="M13.7846 1.3H10.2154C9.62407 1.3 9.14468 1.77939 9.14468 2.37075V3.08458C9.14468 3.67593 9.62407 4.15532 10.2154 4.15532H13.7846C14.3759 4.15532 14.8553 3.67593 14.8553 3.08458V2.37075C14.8553 1.77939 14.3759 1.3 13.7846 1.3Z" fill="#F8F6FF" stroke="#F8F6FF" stroke-width="2" stroke-linecap="round" stroke-linejoin="round"/>
</svg>
