<svg width="25" height="20" viewBox="0 0 25 20" fill="none" xmlns="http://www.w3.org/2000/svg">
<path d="M17.25 3.5L16 1H8.5L7.25 3.5H3.5C2.83696 3.5 2.20107 3.76339 1.73223 4.23223C1.26339 4.70107 1 5.33696 1 6V16C1 16.663 1.26339 17.2989 1.73223 17.7678C2.20107 18.2366 2.83696 18.5 3.5 18.5H21C21.663 18.5 22.2989 18.2366 22.7678 17.7678C23.2366 17.2989 23.5 16.663 23.5 16V6C23.5 5.33696 23.2366 4.70107 22.7678 4.23223C22.2989 3.76339 21.663 3.5 21 3.5H17.25Z" stroke="#F8F7FF" stroke-width="2" stroke-linecap="round" stroke-linejoin="round"/>
<path d="M12.25 13.5C13.9759 13.5 15.375 12.1009 15.375 10.375C15.375 8.64911 13.9759 7.25 12.25 7.25C10.5241 7.25 9.125 8.64911 9.125 10.375C9.125 12.1009 10.5241 13.5 12.25 13.5Z" stroke="#F8F7FF" stroke-width="2" stroke-linecap="round" stroke-linejoin="round"/>
</svg>
