<svg width="8" height="10" viewBox="0 0 8 10" fill="none" xmlns="http://www.w3.org/2000/svg">
<path d="M3.99999 6.34286C4.4715 6.34286 4.875 6.19365 5.21071 5.89536C5.54637 5.59707 5.71422 5.23822 5.71422 4.81914V1.52389C5.71422 1.10481 5.5465 0.746107 5.21071 0.447668C4.875 0.149295 4.4715 0 3.99999 0C3.52853 0 3.12497 0.149295 2.78924 0.447668C2.45349 0.746057 2.28564 1.10481 2.28564 1.52389V4.81914C2.28564 5.2382 2.45357 5.59707 2.78924 5.89536C3.12491 6.19365 3.52853 6.34286 3.99999 6.34286Z" fill="#F8F7FF"/>
<path d="M1 3.42859V4.7143C1 6.37116 2.34315 7.7143 4 7.7143V7.7143C5.65685 7.7143 7 6.37116 7 4.7143V3.42859" stroke="white" stroke-linecap="round"/>
<path d="M4 7.71423L4 9.42852" stroke="white" stroke-linecap="round"/>
<path d="M2.28564 9.42859H5.71422" stroke="white" stroke-linecap="round"/>
</svg>
