<svg width="16" height="16" viewBox="0 0 16 16" fill="none" xmlns="http://www.w3.org/2000/svg">
<circle cx="8" cy="8" r="7" stroke="#F8F6FF" stroke-width="2"/>
<path d="M6.12 6.495C6.12 6.12416 6.22996 5.76164 6.43599 5.4533C6.64202 5.14496 6.93485 4.90464 7.27746 4.76272C7.62008 4.62081 7.99708 4.58368 8.36079 4.65602C8.7245 4.72837 9.0586 4.90695 9.32082 5.16917C9.58304 5.43139 9.76162 5.76549 9.83397 6.1292C9.90631 6.49292 9.86918 6.86992 9.72727 7.21253C9.58536 7.55514 9.34503 7.84797 9.03669 8.054C8.72835 8.26003 8.36584 8.37 7.995 8.37" stroke="#F8F6FF" stroke-width="2" stroke-linecap="round" stroke-linejoin="round"/>
<path d="M7.99499 10.62C7.92083 10.62 7.84832 10.642 7.78666 10.6832C7.72499 10.7244 7.67692 10.783 7.64854 10.8515C7.62016 10.92 7.61273 10.9954 7.6272 11.0682C7.64167 11.1409 7.67738 11.2077 7.72983 11.2602C7.78227 11.3126 7.84909 11.3483 7.92184 11.3628C7.99458 11.3773 8.06998 11.3698 8.1385 11.3415C8.20702 11.3131 8.26559 11.265 8.3068 11.2033C8.348 11.1417 8.36999 11.0692 8.36999 10.995C8.37013 10.9457 8.36052 10.8969 8.34172 10.8513C8.32292 10.8058 8.2953 10.7644 8.26045 10.7295C8.22561 10.6947 8.18421 10.6671 8.13866 10.6483C8.0931 10.6295 8.04428 10.6199 7.99499 10.62" stroke="#F8F6FF" stroke-width="2" stroke-linecap="round" stroke-linejoin="round"/>
</svg>
