<svg width="16" height="16" viewBox="0 0 16 16" fill="none" xmlns="http://www.w3.org/2000/svg">
<path d="M8.0051 14L2.03821 7.90275C1.51306 7.39032 1.16601 6.72893 1.04631 6.01242C0.926612 5.29592 1.04035 4.56069 1.37137 3.91106C1.62161 3.42098 1.9872 2.99616 2.43801 2.67163C2.88881 2.3471 3.41192 2.13215 3.9642 2.04451C4.51649 1.95687 5.08213 1.99904 5.6145 2.16756C6.14688 2.33607 6.63073 2.62609 7.02618 3.01372L7.99977 3.96723L8.97469 3.01372C9.37013 2.62609 9.85399 2.33607 10.3864 2.16756C10.9187 1.99904 11.4844 1.95687 12.0367 2.04451C12.5889 2.13215 13.1121 2.3471 13.5629 2.67163C14.0137 2.99616 14.3793 3.42098 14.6295 3.91106C14.9599 4.56083 15.0733 5.29591 14.9536 6.01228C14.834 6.72864 14.4873 7.39 13.9627 7.90275L8.0051 14Z" fill="#DC3A3A" stroke="#DC3A3A" stroke-width="2" stroke-linecap="round" stroke-linejoin="round"/>
</svg>
