<svg width="16" height="16" viewBox="0 0 16 16" fill="none" xmlns="http://www.w3.org/2000/svg">
    <path d="M5.5 12.5C4.9749 12.9892 4.54262 13 3.80001 13C3.0574 13 2.34521 12.7252 1.82011 12.236C1.295 11.7468 1 11.0833 1 10.3914C1 9.69961 1.295 9.03612 1.82011 8.54692L4.78997 5.77955C5.28788 5.31464 5.95572 5.0418 6.66011 5.01553C7.3645 4.98926 8.0536 5.21149 8.58981 5.63785C9.12603 6.0642 9.46988 6.66329 9.55271 7.31549" stroke="#6A6A89" stroke-width="2" stroke-linecap="round" stroke-linejoin="round"/>
    <path d="M10.2201 3.76403C10.7452 3.27483 11.4574 3 12.2 3C12.9426 3 13.6548 3.27483 14.1799 3.76403C14.705 4.25323 15 4.91672 15 5.60855C15 6.30038 14.705 6.96388 14.1799 7.45308L11.21 10.2199C10.712 10.6846 10.0442 10.9572 9.33985 10.9833C8.63553 11.0094 7.94655 10.7871 7.41047 10.3607C6.87439 9.93434 6.53066 9.33527 6.44789 8.68314" stroke="#6A6A89" stroke-width="2" stroke-linecap="round" stroke-linejoin="round"/>
</svg>
