<svg width="16" height="16" viewBox="0 0 16 16" fill="none" xmlns="http://www.w3.org/2000/svg">
    <path d="M8 1C9.39239 1 10.7277 1.55654 11.7123 2.5472C12.6969 3.53785 13.25 4.88147 13.25 6.28247C13.25 8.5375 10.114 12.828 8.6895 14.6616C8.60766 14.767 8.50304 14.8523 8.38357 14.9109C8.2641 14.9695 8.13292 15 8 15C7.86708 15 7.7359 14.9695 7.61643 14.9109C7.49696 14.8523 7.39234 14.767 7.3105 14.6616C5.886 12.8292 2.75 8.54336 2.75 6.28247C2.75 4.88147 3.30312 3.53785 4.28769 2.5472C5.27226 1.55654 6.60761 1 8 1V1Z" stroke="#6A6A89" stroke-width="2" stroke-linecap="round" stroke-linejoin="round"/>
    <ellipse cx="8" cy="6.28247" rx="1.75" ry="1.76082" fill="#6A6A89"/>
</svg>
