<svg width="16" height="16" viewBox="0 0 16 16" fill="none" xmlns="http://www.w3.org/2000/svg">
    <path fill-rule="evenodd" clip-rule="evenodd" d="M10.623 2.95005C9.90937 2.33429 8.96291 2.00222 7.99428 2L7.99256 2.75L7.99067 2C7.02216 2.00244 6.07589 2.33457 5.36234 2.95026C4.64539 3.56888 4.21526 4.43278 4.21212 5.36227H4.21211V5.36481V6.32241C3.53777 6.57839 3 7.1732 3 7.97952V12.1632C3 13.2551 3.98616 13.9591 4.96218 13.9591H11.0231C11.9991 13.9591 12.9853 13.2551 12.9853 12.1632V7.97952C12.9853 7.17315 12.4474 6.57832 11.773 6.32236L11.773 5.36481L11.773 5.3625C11.7701 4.43286 11.3401 3.56876 10.623 2.95005ZM11.0101 7.68359C11.0144 7.68366 11.0187 7.6837 11.023 7.6837C11.026 7.6837 11.0289 7.68368 11.0319 7.68365C11.1891 7.68567 11.3133 7.74141 11.3903 7.80778C11.4671 7.87404 11.4853 7.9369 11.4853 7.97952V12.1632C11.4853 12.2058 11.4671 12.2687 11.3903 12.335C11.3119 12.4026 11.1844 12.4591 11.0231 12.4591H4.96218C4.80085 12.4591 4.67335 12.4026 4.595 12.335C4.5182 12.2687 4.5 12.2058 4.5 12.1632V7.97952C4.5 7.9369 4.5182 7.87404 4.595 7.80778C4.6719 7.74142 4.79617 7.68568 4.95329 7.68365C4.95623 7.68368 4.95917 7.6837 4.96211 7.6837C4.96641 7.6837 4.9707 7.68366 4.97499 7.68359H11.0101ZM10.273 6.18359V5.36601C10.2713 4.91016 10.0614 4.44668 9.6431 4.08573C9.22142 3.72189 8.62947 3.50187 7.99265 3.5C7.35584 3.50202 6.76394 3.72209 6.34226 4.08593C5.92394 4.44688 5.714 4.91034 5.71211 5.36621V6.18359H10.273Z" fill="#6A6A89"/>
</svg>
