<svg width="16" height="16" viewBox="0 0 16 16" fill="none" xmlns="http://www.w3.org/2000/svg">
<path d="M14 6.46273V9.53834C14 9.53834 13.9927 9.85038 13.6936 9.85038H10.2041V12.6113C10.2041 12.6113 10.2041 12.9233 9.8977 12.9233H6.40815V15.688C6.40815 15.8576 6.26727 16 6.10178 16H2.30638C2.13983 16 2 15.8565 2 15.688V12.6113C2 12.6113 2.00838 12.2992 2.30638 12.2992H5.79592V9.84985H2.30638C2.30638 9.84985 2.03195 9.85838 2 9.5378V6.46219C2 6.46219 2.00105 6.15015 2.30638 6.15015C2.61171 6.15015 5.79592 6.15015 5.79592 6.15015V3.68903H2.29643C2.00157 3.68903 2 3.38712 2 3.38712V0.312042C2 0.0101347 2.30638 0 2.30638 0H6.1023C6.39873 0 6.40868 0.312042 6.40868 0.312042V3.07454H9.89822C9.89822 3.07454 10.2046 3.09588 10.2046 3.38658V6.15122H13.6941C13.6936 6.15069 14 6.16082 14 6.46273ZM9.59185 9.22363V6.77424H6.40815V9.22363H9.59185Z" fill="#F8F6FF"/>
</svg>
