<svg width="16" height="16" viewBox="0 0 16 16" fill="none" xmlns="http://www.w3.org/2000/svg">
    <path fill-rule="evenodd" clip-rule="evenodd" d="M8 16C12.4183 16 16 12.4183 16 8C16 3.58172 12.4183 0 8 0C3.58172 0 0 3.58172 0 8C0 12.4183 3.58172 16 8 16ZM9.42059 8.68767V4.93791C9.42059 4.49749 9.34789 4.09238 8.97563 3.97727C8.69047 3.87581 8.5135 4.16963 8.5135 4.60977V14L6.03113 13.1961V2C7.02841 2.20002 8.61538 2.67251 9.37483 2.95684C11.3065 3.69294 11.9616 4.60942 11.9616 6.67415C11.9616 8.68672 10.8426 9.44956 9.42059 8.68767ZM10.7871 9.44893C11.7801 9.32715 12.9965 9.46516 13.9512 9.86711C15.0273 10.2448 15.1487 10.801 14.8755 11.1845C14.6018 11.5677 13.9317 11.8409 13.9317 11.8409L8.94643 13.8292V12.363L12.6151 10.9114C13.0315 10.7457 13.095 10.5117 12.7571 10.3886C12.4192 10.2655 11.8076 10.3011 11.3907 10.4671L8.94643 11.423V9.90112L9.08733 9.84832C9.08733 9.84832 9.79346 9.57104 10.7871 9.44893ZM2.04777 12.2097C0.957788 11.8107 0.759195 11.1448 1.26258 10.7301C1.72817 10.3469 2.51968 10.0588 2.51968 10.0588L5.66658 8.80547V10.3295L3.43656 11.175C3.02021 11.3407 2.95664 11.5747 3.29451 11.6978C3.6324 11.8205 4.2446 11.7858 4.66096 11.6195L5.66658 11.2882V12.6518C5.61392 12.663 5.55636 12.6743 5.50066 12.6852C5.48386 12.6885 5.46724 12.6918 5.45097 12.695C4.36896 12.9073 3.23267 12.6434 2.04777 12.2097Z" fill="#6A6A89"/>
</svg>
