<svg width="16" height="16" viewBox="0 0 16 16" fill="none" xmlns="http://www.w3.org/2000/svg">
<path fill-rule="evenodd" clip-rule="evenodd" d="M11.2409 1.81331C10.358 1.05156 9.18919 0.642203 7.99484 0.639465L7.99254 1.63946L7.99002 0.639466C6.79582 0.642475 5.62721 1.05191 4.74451 1.81355C3.85726 2.57911 3.32247 3.65066 3.31856 4.80617H3.31856V4.80955V5.90911C2.49862 6.24269 1.84904 6.98009 1.84904 7.97951V13.0517C1.84904 14.4376 3.09827 15.3197 4.31864 15.3197H11.6666C12.887 15.3197 14.1362 14.4376 14.1362 13.0517V7.97951C14.1362 6.98002 13.4865 6.24259 12.6665 5.90904L12.6665 4.80955L12.6665 4.80647C12.663 3.65078 12.1282 2.57897 11.2409 1.81331ZM11.6502 7.71148C11.6557 7.71156 11.6611 7.71161 11.6665 7.71161C11.6701 7.71161 11.6736 7.71159 11.6772 7.71155C11.8466 7.71396 11.9762 7.77412 12.0525 7.83999C12.1284 7.90545 12.1362 7.95763 12.1362 7.97951V13.0517C12.1362 13.0735 12.1284 13.1257 12.0525 13.1912C11.9746 13.2584 11.8412 13.3197 11.6666 13.3197H4.31864C4.14403 13.3197 4.01068 13.2584 3.93276 13.1912C3.8569 13.1257 3.84904 13.0735 3.84904 13.0517V7.97951C3.84904 7.95763 3.8569 7.90545 3.93276 7.83999C4.0091 7.77413 4.13862 7.71398 4.30802 7.71155C4.31153 7.71159 4.31504 7.71161 4.31856 7.71161C4.324 7.71161 4.32943 7.71156 4.33486 7.71148H11.6502ZM10.6665 5.71148V4.81126C10.6645 4.28724 10.4234 3.74956 9.93431 3.32754C9.44077 2.90169 8.74459 2.64174 7.99266 2.63947C7.24073 2.64191 6.54461 2.90193 6.05106 3.32779C5.56199 3.74978 5.32078 4.28741 5.31856 4.81144V5.71148H10.6665Z" fill="#F8F6FF"/>
</svg>
