<svg width="16" height="16" viewBox="0 0 16 16" fill="none" xmlns="http://www.w3.org/2000/svg">
    <path d="M6.8821 2.01145C6.99232 2.13382 7.12703 2.23167 7.27748 2.29864C7.42793 2.36561 7.59078 2.40022 7.75546 2.40022C7.92014 2.40022 8.08299 2.36561 8.23344 2.29864C8.38389 2.23167 8.5186 2.13382 8.62882 2.01145L9.19705 1.38787C9.3599 1.20761 9.57455 1.08217 9.81152 1.02878C10.0485 0.975381 10.2962 0.996643 10.5206 1.08964C10.745 1.18265 10.9351 1.34283 11.0649 1.54821C11.1946 1.75359 11.2577 1.9941 11.2453 2.23673L11.2027 3.07779C11.1944 3.24186 11.2206 3.40584 11.2796 3.55916C11.3386 3.71249 11.429 3.85176 11.545 3.968C11.6611 4.08425 11.8002 4.17489 11.9534 4.23409C12.1067 4.2933 12.2706 4.31974 12.4346 4.31173L13.2756 4.26908C13.518 4.25713 13.7582 4.32045 13.9632 4.45038C14.1683 4.58031 14.3281 4.77048 14.4209 4.99483C14.5137 5.21918 14.5348 5.46673 14.4813 5.70355C14.4279 5.94036 14.3026 6.15487 14.1225 6.31765L13.4966 6.88235C13.3744 6.99275 13.2767 7.12756 13.2098 7.27807C13.143 7.42858 13.1084 7.59145 13.1084 7.75615C13.1084 7.92085 13.143 8.08371 13.2098 8.23423C13.2767 8.38474 13.3744 8.51955 13.4966 8.62994L14.1225 9.19465C14.3027 9.35753 14.4281 9.5722 14.4815 9.80921C14.5349 10.0462 14.5137 10.2939 14.4207 10.5184C14.3277 10.7428 14.1675 10.933 13.9622 11.0628C13.7568 11.1925 13.5163 11.2556 13.2738 11.2432L12.4328 11.2006C12.2684 11.1921 12.1041 11.2183 11.9504 11.2773C11.7967 11.3364 11.6572 11.4271 11.5408 11.5435C11.4244 11.66 11.3337 11.7995 11.2746 11.9532C11.2156 12.1069 11.1894 12.2713 11.1979 12.4357L11.2405 13.2768C11.2513 13.5182 11.1874 13.7571 11.0577 13.9609C10.928 14.1648 10.7387 14.3238 10.5155 14.4163C10.2923 14.5089 10.046 14.5304 9.81014 14.4781C9.57426 14.4258 9.3602 14.3021 9.19705 14.1238L8.63183 13.4984C8.5215 13.3762 8.38676 13.2785 8.23632 13.2117C8.08588 13.1448 7.92309 13.1103 7.75846 13.1103C7.59384 13.1103 7.43104 13.1448 7.2806 13.2117C7.13016 13.2785 6.99543 13.3762 6.8851 13.4984L6.31747 14.1238C6.15458 14.3029 5.94043 14.4274 5.70422 14.4803C5.46802 14.5332 5.22124 14.5119 4.99754 14.4195C4.77384 14.327 4.58411 14.1677 4.4542 13.9635C4.32429 13.7592 4.26053 13.5198 4.27162 13.278L4.31486 12.4369C4.32332 12.2725 4.29717 12.1081 4.2381 11.9544C4.17903 11.8007 4.08835 11.6612 3.97195 11.5447C3.85554 11.4283 3.71599 11.3376 3.56232 11.2785C3.40866 11.2195 3.24431 11.1933 3.0799 11.2018L2.23897 11.2444C1.99648 11.2571 1.75601 11.1944 1.55058 11.0649C1.34515 10.9354 1.18483 10.7454 1.09164 10.5212C0.998442 10.2969 0.97694 10.0493 1.03008 9.81232C1.08322 9.57535 1.2084 9.36063 1.38843 9.19766L2.01372 8.63295C2.13593 8.52255 2.23361 8.38774 2.30048 8.23723C2.36734 8.08672 2.40188 7.92385 2.40188 7.75915C2.40188 7.59445 2.36734 7.43159 2.30048 7.28108C2.23361 7.13056 2.13593 6.99576 2.01372 6.88536L1.38843 6.31765C1.20899 6.15484 1.08419 5.94058 1.0311 5.70416C0.978013 5.46773 0.999226 5.22068 1.09184 4.99677C1.18445 4.77286 1.34395 4.58302 1.54852 4.4532C1.7531 4.32338 1.99277 4.25991 2.23477 4.27148L3.0757 4.31414C3.24042 4.3228 3.40511 4.29671 3.5591 4.23756C3.71308 4.17842 3.8529 4.08754 3.96948 3.97083C4.08605 3.85412 4.17678 3.71419 4.23577 3.56013C4.29476 3.40607 4.32068 3.24132 4.31186 3.07659L4.27162 2.23493C4.26027 1.99299 4.32383 1.75343 4.45364 1.54896C4.58345 1.34448 4.77318 1.18504 4.99694 1.0924C5.2207 0.999753 5.46759 0.978415 5.70392 1.0313C5.94025 1.08418 6.15452 1.2087 6.31747 1.38787L6.8821 2.01145Z" stroke="#6A6A89" stroke-width="2" stroke-linecap="round" stroke-linejoin="round"/>
    <path d="M7.75 9.75C8.85457 9.75 9.75 8.91053 9.75 7.875C9.75 6.83947 8.85457 6 7.75 6C6.64543 6 5.75 6.83947 5.75 7.875C5.75 8.91053 6.64543 9.75 7.75 9.75Z" stroke="#6A6A89" stroke-width="2" stroke-linecap="round" stroke-linejoin="round"/>
</svg>
