<svg width="16" height="16" viewBox="0 0 16 16" fill="none" xmlns="http://www.w3.org/2000/svg">
    <path fill-rule="evenodd" clip-rule="evenodd" d="M0.328632 10.3331C1.32819 13.6134 4.38076 16 7.99141 16C12.4144 16 16 12.4182 16 8C16 3.58173 12.4144 0 7.99141 0C3.74713 0 0.274286 3.29813 0 7.4685C0.00131651 7.47071 0.00263098 7.47291 0.00394341 7.47512C0.00398263 7.47443 0.00401127 7.47394 0.0040285 7.47365L0.00404769 7.47331L4.30731 9.24293C4.42438 9.16602 4.54915 9.09941 4.6823 9.04516C4.98436 8.92087 5.30292 8.86525 5.62037 8.87967L7.58011 6.03592C7.57942 6.02329 7.57942 6.00983 7.57942 5.99637C7.57942 4.31809 8.94398 2.9528 10.6213 2.9528C12.2993 2.9528 13.6632 4.31809 13.6632 5.99637C13.6632 7.67452 12.2993 9.04104 10.6213 9.04104C10.5986 9.04104 10.5753 9.04035 10.5526 9.03967L7.74853 11.0414C7.75678 11.3504 7.69972 11.6601 7.57736 11.9554C7.10715 13.085 5.80385 13.6227 4.6735 13.1509C3.98263 12.8632 3.51436 12.2651 3.36161 11.5832L0.328632 10.3331ZM4.86846 12.6826C5.74123 13.0458 6.74529 12.6318 7.10922 11.759C7.2852 11.3373 7.28589 10.8704 7.11197 10.4474C6.93805 10.0244 6.60986 9.6934 6.18689 9.51761C5.76735 9.34319 5.31832 9.34868 4.92332 9.49838L5.94697 9.92207C6.59027 10.1899 6.89474 10.9288 6.62636 11.5722C6.35881 12.2149 5.62037 12.5198 4.97673 12.252L3.98648 11.8421C4.16185 12.2081 4.46583 12.515 4.86846 12.6826ZM8.59476 5.99637C8.59476 7.11486 9.50423 8.02473 10.6213 8.02473C11.7391 8.02473 12.6486 7.11486 12.6486 5.99637C12.6486 4.87877 11.7391 3.96863 10.6213 3.96863C9.50423 3.96863 8.59476 4.87877 8.59476 5.99637ZM10.6247 4.46943C9.78471 4.46943 9.10277 5.15187 9.10277 5.99328C9.10277 6.83476 9.78471 7.51658 10.6247 7.51658C11.4655 7.51658 12.1474 6.83476 12.1474 5.99328C12.1474 5.15187 11.4655 4.46943 10.6247 4.46943Z" fill="#F8F6FF"/>
</svg>
