<svg width="16" height="16" viewBox="0 0 16 16" fill="none" xmlns="http://www.w3.org/2000/svg">
<circle cx="8" cy="8" r="7" stroke="#F8F6FF" stroke-width="2"/>
<path d="M6.1 7.2C5.65817 6.86863 5.03137 6.95817 4.7 7.4C4.36863 7.84183 4.45817 8.46863 4.9 8.8L6.1 7.2ZM7.5 9.5L6.9 10.3C7.3259 10.6194 7.9274 10.5492 8.26822 10.1402L7.5 9.5ZM10.7682 7.14018C11.1218 6.71591 11.0645 6.08534 10.6402 5.73178C10.2159 5.37821 9.58534 5.43554 9.23178 5.85982L10.7682 7.14018ZM4.9 8.8L6.9 10.3L8.1 8.7L6.1 7.2L4.9 8.8ZM8.26822 10.1402L10.7682 7.14018L9.23178 5.85982L6.73178 8.85982L8.26822 10.1402Z" fill="#F8F6FF"/>
</svg>
