<svg width="16" height="16" viewBox="0 0 16 16" fill="none" xmlns="http://www.w3.org/2000/svg">
<path fill-rule="evenodd" clip-rule="evenodd" d="M7.99428 2L7.99067 2.00001C7.02216 2.00245 6.07589 2.33458 5.36234 2.95026C5.04874 3.22086 5.01387 3.69445 5.28446 4.00806C5.55506 4.32167 6.02865 4.35654 6.34226 4.08594C6.76394 3.7221 7.35584 3.50203 7.99265 3.50001C8.62947 3.50188 9.22142 3.7219 9.6431 4.08574C10.0615 4.44672 10.2713 4.91026 10.273 5.36615V6.1836H4.96218C3.98616 6.1836 3 6.88764 3 7.97953V12.1632C3 13.2551 3.98616 13.9592 4.96218 13.9592H11.0231C11.9991 13.9592 12.9853 13.2551 12.9853 12.1632V7.97953C12.9853 7.17316 12.4474 6.57832 11.773 6.32237L11.773 5.36482L11.773 5.36251C11.7701 4.43287 11.3401 3.56877 10.623 2.95006C9.90937 2.3343 8.96291 2.00223 7.99428 2ZM11.0101 7.6836C11.0144 7.68367 11.0187 7.68371 11.023 7.68371C11.026 7.68371 11.0289 7.68369 11.0319 7.68366C11.1891 7.68568 11.3133 7.74142 11.3903 7.80778C11.4671 7.87405 11.4853 7.93691 11.4853 7.97953V12.1632C11.4853 12.2058 11.4671 12.2687 11.3903 12.335C11.3119 12.4026 11.1844 12.4592 11.0231 12.4592H4.96218C4.80085 12.4592 4.67335 12.4026 4.595 12.335C4.5182 12.2687 4.5 12.2058 4.5 12.1632V7.97953C4.5 7.93691 4.5182 7.87405 4.595 7.80778C4.67335 7.74018 4.80085 7.6836 4.96218 7.6836H11.0101Z" fill="#F8F6FF"/>
</svg>
