<svg width="112" height="98" viewBox="0 0 112 98" fill="none" xmlns="http://www.w3.org/2000/svg">
<path d="M76 21.0039V30.9996C76 30.9996 75.9756 32.0137 74.9788 32.0137H63.3469V40.9867C63.3469 40.9867 63.3469 42.0008 62.3257 42.0008H50.6939V50.9859C50.6939 51.5371 50.2243 52 49.6726 52H37.0213C36.4661 52 36 51.5337 36 50.9859V40.9867C36 40.9867 36.0279 39.9725 37.0213 39.9725H48.6531V32.012H37.0213C37.0213 32.012 36.1065 32.0397 36 30.9979V21.0021C36 21.0021 36.0035 19.988 37.0213 19.988C38.039 19.988 48.6531 19.988 48.6531 19.988V11.9893H36.9881C36.0053 11.9893 36 11.0081 36 11.0081V1.01414C36 0.0329377 37.0213 0 37.0213 0H49.6743C50.6624 0 50.6956 1.01414 50.6956 1.01414V9.99227H62.3274C62.3274 9.99227 63.3487 10.0616 63.3487 11.0064V19.9915H74.9805C74.9788 19.9897 76 20.0227 76 21.0039ZM61.3062 29.9768V22.0163H50.6939V29.9768H61.3062Z" fill="#F6F7FB"/>
<path d="M11.1068 69.3492C13.1206 69.3492 14.938 69.8218 16.5589 70.7668C18.1921 71.6995 19.4691 72.999 20.3901 74.6653C21.311 76.3316 21.7715 78.1907 21.7715 80.2425C21.7715 82.2943 21.311 84.1596 20.3901 85.8383C19.4691 87.5047 18.1921 88.8104 16.5589 89.7554C14.938 90.7005 13.1206 91.1731 11.1068 91.1731C9.70357 91.1731 8.39125 90.9055 7.16983 90.3704C6.43091 90.0467 5.50735 90.5405 5.50735 91.3472V97C5.50735 97.5523 5.05964 98 4.50735 98H0.999999C0.447714 98 0 97.5523 0 97V70.9275C0 70.3752 0.447715 69.9275 1 69.9275H3.00979C3.38896 69.9275 3.73552 70.1419 3.90471 70.4812L3.98227 70.6368C4.27695 71.2278 5.0537 71.3731 5.59806 70.9992C7.19978 69.8992 9.03603 69.3492 11.1068 69.3492ZM6.66776 84.2902C7.7238 85.3596 9.04998 85.8943 10.6463 85.8943C12.2427 85.8943 13.5627 85.3596 14.6064 84.2902C15.6625 83.2207 16.1905 81.8715 16.1905 80.2425C16.1905 78.6135 15.6625 77.2642 14.6064 76.1948C13.5627 75.1254 12.2427 74.5907 10.6463 74.5907C9.04998 74.5907 7.7238 75.1316 6.66776 76.2135C5.62401 77.2829 5.10213 78.6259 5.10213 80.2425C5.10213 81.8591 5.62401 83.2083 6.66776 84.2902Z" fill="white"/>
<path d="M42.1385 70.5237C42.2506 70.1478 42.5962 69.8902 42.9885 69.8902H45.4533C46.0056 69.8902 46.4533 70.3379 46.4533 70.8902V89.5202C46.4533 90.0725 46.0056 90.5202 45.4533 90.5202H42.7386C42.3772 90.5202 42.0614 90.2759 41.9707 89.9261C41.822 89.3528 41.1156 89.1355 40.6267 89.4696C39.0011 90.5804 37.1428 91.1357 35.0518 91.1357C33.038 91.1357 31.2145 90.6632 29.5813 89.7181C27.9481 88.7731 26.671 87.4674 25.7501 85.801C24.8291 84.1223 24.3686 82.257 24.3686 80.2052C24.3686 78.1658 24.8291 76.3192 25.7501 74.6653C26.671 72.999 27.9481 71.6995 29.5813 70.7668C31.2145 69.8218 33.038 69.3492 35.0518 69.3492C37.151 69.3492 39.0124 69.9002 40.636 71.0021C41.1748 71.3678 41.9525 71.1478 42.1385 70.5237ZM31.5153 84.2528C32.5713 85.3223 33.8975 85.857 35.4939 85.857C37.0902 85.857 38.4102 85.3223 39.454 84.2528C40.51 83.1834 41.038 81.8342 41.038 80.2052C41.038 78.5762 40.51 77.2269 39.454 76.1575C38.4102 75.0881 37.0902 74.5534 35.4939 74.5534C33.8975 74.5534 32.5713 75.0943 31.5153 76.1762C30.4715 77.2456 29.9497 78.5886 29.9497 80.2052C29.9497 81.8218 30.4715 83.171 31.5153 84.2528Z" fill="white"/>
<path d="M60.656 69.8155H61.4611C62.0134 69.8155 62.4611 70.2633 62.4611 70.8155V74.0756C62.4611 74.6279 62.0134 75.0756 61.4611 75.0756H60.085C58.5378 75.0756 57.4265 75.4487 56.7511 76.1948C56.088 76.9285 55.7565 78.1409 55.7565 79.8321V89.5575C55.7565 90.1098 55.3088 90.5575 54.7565 90.5575H51.2491C50.6969 90.5575 50.2491 90.1098 50.2491 89.5575V70.9275C50.2491 70.3752 50.6969 69.9275 51.2491 69.9275H53.0806C53.4943 69.9275 53.8652 70.1822 54.0138 70.5683L54.1145 70.8298C54.3925 71.5522 55.371 71.7061 55.9875 71.2381C57.237 70.2897 58.7932 69.8155 60.656 69.8155Z" fill="white"/>
<path d="M76.3116 85.5959H77.8166C78.3689 85.5959 78.8166 86.0436 78.8166 86.5959V89.5575C78.8166 90.1098 78.3689 90.5575 77.8166 90.5575H74.9118C72.6769 90.5575 70.9087 89.9047 69.607 88.599C68.3177 87.2808 67.673 85.4777 67.673 83.1896V75.4041C67.673 74.8519 67.2253 74.4041 66.673 74.4041H64.8464C64.373 74.4041 63.9892 74.0203 63.9892 73.5469C63.9892 73.3306 64.0709 73.1223 64.2181 72.9637L71.8214 64.7705C71.9598 64.6215 72.1539 64.5368 72.3573 64.5368C72.761 64.5368 73.0883 64.8641 73.0883 65.2678V68.9275C73.0883 69.4797 73.536 69.9275 74.0883 69.9275H77.7061C78.2584 69.9275 78.7061 70.3752 78.7061 70.9275V73.4041C78.7061 73.9564 78.2584 74.4041 77.7061 74.4041H74.1804C73.6281 74.4041 73.1804 74.8519 73.1804 75.4041V82.4435C73.1804 83.4508 73.4505 84.228 73.9908 84.7751C74.5311 85.3223 75.3047 85.5959 76.3116 85.5959Z" fill="white"/>
<path d="M85.1669 67.1855C83.735 67.1855 82.5742 66.0247 82.5742 64.5927C82.5742 63.1608 83.735 62 85.1669 62H85.4704C86.9023 62 88.0631 63.1608 88.0631 64.5927C88.0631 66.0247 86.9023 67.1855 85.4704 67.1855H85.1669ZM83.5742 90.5575C83.0219 90.5575 82.5742 90.1098 82.5742 89.5575V70.9275C82.5742 70.3752 83.0219 69.9275 83.5742 69.9275H87.0815C87.6338 69.9275 88.0815 70.3752 88.0815 70.9275V89.5575C88.0815 90.1098 87.6338 90.5575 87.0815 90.5575H83.5742Z" fill="white"/>
<path d="M112 80.1679C112 80.4287 111.992 80.6868 111.976 80.9422C111.945 81.4407 111.517 81.8093 111.018 81.8093H97.6523C97.0346 81.8093 96.556 82.3689 96.757 82.953C97.0542 83.8163 97.512 84.5169 98.1303 85.0549C99.0144 85.801 100.126 86.1741 101.464 86.1741C102.41 86.1741 103.592 86.1993 104.341 85.7765C104.926 85.4516 105.41 85.0313 105.792 84.5155C106.007 84.2245 106.334 84.0231 106.696 84.0231H110.514C111.194 84.0231 111.675 84.6894 111.391 85.3075C110.629 86.9658 109.519 88.3284 108.062 89.3951C106.245 90.7133 103.822 91.1357 101.464 91.1357C99.4872 91.1357 97.6883 90.6632 96.0674 89.7181C94.4587 88.7606 93.194 87.4487 92.273 85.7824C91.352 84.1161 90.8916 82.2694 90.8916 80.2425C90.8916 78.2031 91.3459 76.3503 92.2546 74.6839C93.1755 73.0176 94.4403 71.7119 96.0489 70.7668C97.6698 69.8218 99.4749 69.3492 101.464 69.3492C103.503 69.3492 105.332 69.8404 106.953 70.8228C108.574 71.7927 109.82 73.0984 110.692 74.7399C111.564 76.3813 112 78.1907 112 80.1679ZM101.464 74.1057C100.249 74.1057 99.217 74.4477 98.3698 75.1316C97.8245 75.5717 97.3886 76.1252 97.062 76.7919C96.7742 77.3794 97.2582 78.0041 97.9124 78.0041H105.145C105.816 78.0041 106.3 77.3498 105.984 76.7579C105.628 76.0903 105.171 75.542 104.614 75.113C103.754 74.4415 102.704 74.1057 101.464 74.1057Z" fill="white"/>
</svg>
