<svg width="97" height="40" viewBox="0 0 97 40" fill="none" xmlns="http://www.w3.org/2000/svg">
<path d="M40 0H0V40H40V0Z" fill="#6E4AFF"/>
<path d="M26.3455 18.4053V21.6002C26.3455 21.6002 26.3399 21.9214 26.0243 21.9214H22.3366V24.7896C22.3366 24.7896 22.3366 25.1107 22.0155 25.1107H18.3278V27.9789C18.3278 28.1561 18.1783 28.3001 18.0066 28.3001H13.9922C13.815 28.3001 13.6711 28.1506 13.6711 27.9789V24.784C13.6711 24.784 13.6821 24.4629 13.9922 24.4629H17.6799V21.9214H13.9922C13.9922 21.9214 13.7043 21.9324 13.6711 21.6002V18.4053C13.6711 18.4053 13.6711 18.0841 13.9922 18.0841C14.3134 18.0841 17.6799 18.0841 17.6799 18.0841V15.526H13.9811C13.6711 15.526 13.6655 15.2104 13.6655 15.2104V12.0155C13.6655 11.6999 13.9867 11.6943 13.9867 11.6943H17.9955C18.3111 11.6943 18.3167 12.0155 18.3167 12.0155V14.8837H22.0044C22.0044 14.8837 22.3255 14.9059 22.3255 15.2049V18.0731H26.0132C26.0188 18.0841 26.3455 18.0897 26.3455 18.4053ZM21.6832 21.2735V18.732H18.3167V21.2735H21.6832Z" fill="#F5F5FA"/>
<path d="M61.2776 19.8163C61.2776 22.1932 59.6125 23.8963 57.2738 23.8963C56.5875 23.8963 55.952 23.7184 55.4054 23.3879V26.4003H52.7998V15.9905H54.592L54.9224 16.6006C55.5452 16.0541 56.3587 15.7363 57.2738 15.7363C59.5998 15.7363 61.2776 17.4268 61.2776 19.8163ZM58.6211 19.8163C58.6211 18.8122 57.8966 18.0623 56.9052 18.0623C55.9138 18.0623 55.1893 18.8122 55.1893 19.8163C55.1893 20.8204 55.9265 21.5703 56.9179 21.5703C57.8966 21.5703 58.6211 20.8204 58.6211 19.8163Z" fill="#F8F6FF"/>
<path d="M70.3402 15.9788V23.6304H68.3065L68.0778 23.0838C67.4549 23.5922 66.6542 23.8846 65.7645 23.8846C63.4258 23.8846 61.7607 22.1814 61.7607 19.8046C61.7607 17.4405 63.4258 15.75 65.7645 15.75C66.6669 15.75 67.4677 16.055 68.1032 16.5762L68.3701 15.9788H70.3402ZM67.8363 19.8173C67.8363 18.8259 67.1118 18.076 66.1204 18.076C65.129 18.076 64.4045 18.8259 64.4045 19.8173C64.4045 20.8214 65.129 21.5586 66.1204 21.5586C67.1118 21.5586 67.8363 20.8087 67.8363 19.8173Z" fill="#F8F6FF"/>
<path d="M76.6953 15.9531V18.3681H75.6785C74.7506 18.3681 74.3566 18.7748 74.3566 19.7535V23.6428H71.7256V15.9913H73.4923L73.899 16.8428C74.4329 16.22 75.0938 15.9531 76.009 15.9531H76.6953Z" fill="#F8F6FF"/>
<path d="M83.2028 21.3292V23.6298H81.3852C79.6948 23.6298 78.6652 22.6002 78.6652 20.8971V18.0245H77.2671V17.4145L80.6862 13.7666H81.2327V16.0036H83.152V18.0373H81.2962V20.4649C81.2962 21.0115 81.6267 21.3419 82.186 21.3419H83.2028V21.3292Z" fill="#F8F6FF"/>
<path d="M84.1436 15.9911H86.7746V23.6427H84.1436V15.9911ZM84.169 12.8008H86.7619V15.0378H84.169V12.8008Z" fill="#F8F6FF"/>
<path d="M96.0274 19.7411C96.0274 19.9699 96.002 20.1987 95.9765 20.4402H90.295C90.473 21.3172 91.0195 21.7747 91.8584 21.7747C92.4685 21.7747 92.9896 21.5078 93.2438 21.063H95.8621C95.3283 22.8043 93.7777 23.8974 91.8584 23.8974C89.4689 23.8974 87.7021 22.1561 87.7021 19.8174C87.7021 17.4787 89.4562 15.7501 91.8584 15.7501C94.3242 15.7374 96.0274 17.5041 96.0274 19.7411ZM90.3459 18.9785H93.4345C93.2057 18.2159 92.6464 17.7964 91.8584 17.7964C91.0958 17.8091 90.562 18.2286 90.3459 18.9785Z" fill="#F8F6FF"/>
</svg>
