<svg width="32" height="32" viewBox="0 0 32 32" fill="none" xmlns="http://www.w3.org/2000/svg">
<rect x="1" y="1" width="30" height="30" rx="15" stroke="#F8F6FF" stroke-width="2"/>
<path d="M21.2 19.6H15.6L12.4 22V19.6H10.8C10.5878 19.6 10.3843 19.5157 10.2343 19.3657C10.0843 19.2157 10 19.0122 10 18.8V10.8C10 10.5878 10.0843 10.3843 10.2343 10.2343C10.3843 10.0843 10.5878 10 10.8 10H21.2C21.4122 10 21.6157 10.0843 21.7657 10.2343C21.9157 10.3843 22 10.5878 22 10.8V18.8C22 19.0122 21.9157 19.2157 21.7657 19.3657C21.6157 19.5157 21.4122 19.6 21.2 19.6Z" stroke="#F8F6FF" stroke-width="2" stroke-linecap="round" stroke-linejoin="round"/>
</svg>
