<svg width="32" height="26" viewBox="0 0 32 26" fill="none" xmlns="http://www.w3.org/2000/svg">
    <path d="M3.70862 25.0003L28.7089 1" stroke="#6E4AFF" stroke-width="2" stroke-linecap="round" stroke-linejoin="round"/>
    <path d="M11.95 22.4016C13.2604 22.8086 14.6259 23.0105 15.998 23.0003C21.4647 23.0923 27.0088 19.2496 30.4302 15.4842C30.797 15.0769 31 14.5482 31 14.0002C31 13.4521 30.797 12.9234 30.4302 12.5161C29.1907 11.1564 27.8176 9.92484 26.3315 8.84009" stroke="#6E4AFF" stroke-width="2" stroke-linecap="round" stroke-linejoin="round"/>
    <path d="M19.2154 5.37598C18.1633 5.11417 17.0821 4.98782 15.998 4.99997C10.6233 4.91064 5.06453 8.66935 1.56982 12.5134C1.203 12.9206 1 13.4493 1 13.9974C1 14.5455 1.203 15.0742 1.56982 15.4814C2.6324 16.6447 3.79217 17.7152 5.03653 18.6815" stroke="#6E4AFF" stroke-width="2" stroke-linecap="round" stroke-linejoin="round"/>
    <path d="M10.998 14.0001C10.9979 13.3434 11.1271 12.6931 11.3783 12.0864C11.6295 11.4797 11.9978 10.9284 12.4621 10.4641C12.9265 9.99976 13.4777 9.63146 14.0845 9.38025C14.6912 9.12904 15.3414 8.99982 15.9981 9" stroke="#6E4AFF" stroke-width="2" stroke-linecap="round" stroke-linejoin="round"/>
    <path d="M20.9981 13.9988C20.9983 14.6555 20.8691 15.3058 20.6179 15.9126C20.3667 16.5194 19.9984 17.0708 19.5341 17.5352C19.0698 17.9997 18.5185 18.3681 17.9118 18.6194C17.3051 18.8708 16.6548 19.0002 15.998 19.0002" stroke="#6E4AFF" stroke-width="2" stroke-linecap="round" stroke-linejoin="round"/>
</svg>
