<svg width="20" height="26" viewBox="0 0 20 26" fill="none" xmlns="http://www.w3.org/2000/svg">
    <path d="M1 2.19958V25" stroke="#6E4AFF" stroke-width="2" stroke-linecap="round" stroke-linejoin="round"/>
    <path d="M1 15.4286L3.57265 14.6142C4.63927 14.2771 5.77511 14.1752 6.89103 14.3165C8.00695 14.4578 9.07258 14.8385 10.0043 15.4286C10.9351 16.0172 11.9993 16.3969 13.1136 16.5379C14.2279 16.6789 15.3621 16.5775 16.4273 16.2414L19 15.4286V2.17241L16.4273 2.98683C15.362 3.32261 14.2277 3.42382 13.1134 3.28253C11.9991 3.14124 10.935 2.76129 10.0043 2.17241C9.0734 1.58329 8.00896 1.2032 6.89434 1.06191C5.77971 0.920613 4.64515 1.02196 3.57951 1.358L1.00686 2.17241L1 15.4286Z" stroke="#6E4AFF" stroke-width="2" stroke-linecap="round" stroke-linejoin="round"/>
</svg>
