<svg width="32" height="32" viewBox="0 0 32 32" fill="none" xmlns="http://www.w3.org/2000/svg">
<rect x="1" y="1" width="30" height="30" rx="15" stroke="#F8F6FF" stroke-width="2"/>
<path fill-rule="evenodd" clip-rule="evenodd" d="M23 11H15.8293C15.4175 9.83481 14.3062 9 13 9C11.6938 9 10.5825 9.83481 10.1707 11H9C8.44772 11 8 11.4477 8 12C8 12.5523 8.44772 13 9 13H10.1707C10.5825 14.1652 11.6938 15 13 15C14.3062 15 15.4175 14.1652 15.8293 13H23C23.5523 13 24 12.5523 24 12C24 11.4477 23.5523 11 23 11ZM13 13C13.5523 13 14 12.5523 14 12C14 11.4477 13.5523 11 13 11C12.4477 11 12 11.4477 12 12C12 12.5523 12.4477 13 13 13Z" fill="#F8F6FF"/>
<path fill-rule="evenodd" clip-rule="evenodd" d="M23 19H21.8293C21.4175 17.8348 20.3062 17 19 17C17.6938 17 16.5825 17.8348 16.1707 19H9C8.44772 19 8 19.4477 8 20C8 20.5523 8.44772 21 9 21H16.1707C16.5825 22.1652 17.6938 23 19 23C20.3062 23 21.4175 22.1652 21.8293 21H23C23.5523 21 24 20.5523 24 20C24 19.4477 23.5523 19 23 19ZM19 21C19.5523 21 20 20.5523 20 20C20 19.4477 19.5523 19 19 19C18.4477 19 18 19.4477 18 20C18 20.5523 18.4477 21 19 21Z" fill="#F8F6FF"/>
</svg>
