<svg width="26" height="20" viewBox="0 0 26 20" fill="none" xmlns="http://www.w3.org/2000/svg">
    <path d="M18 3.75L16.75 1.25H9.25L8 3.75H4.25C3.58696 3.75 2.95107 4.01339 2.48223 4.48223C2.01339 4.95107 1.75 5.58696 1.75 6.25V16.25C1.75 16.913 2.01339 17.5489 2.48223 18.0178C2.95107 18.4866 3.58696 18.75 4.25 18.75H21.75C22.413 18.75 23.0489 18.4866 23.5178 18.0178C23.9866 17.5489 24.25 16.913 24.25 16.25V6.25C24.25 5.58696 23.9866 4.95107 23.5178 4.48223C23.0489 4.01339 22.413 3.75 21.75 3.75H18Z" stroke="#F8F6FF" stroke-width="2" stroke-linecap="round" stroke-linejoin="round"/>
    <path d="M13 13.75C14.7259 13.75 16.125 12.3509 16.125 10.625C16.125 8.89911 14.7259 7.5 13 7.5C11.2741 7.5 9.875 8.89911 9.875 10.625C9.875 12.3509 11.2741 13.75 13 13.75Z" stroke="#F8F6FF" stroke-width="2" stroke-linecap="round" stroke-linejoin="round"/>
</svg>
