<svg width="20" height="20" viewBox="0 0 20 20" fill="none" xmlns="http://www.w3.org/2000/svg">
    <path fill-rule="evenodd" clip-rule="evenodd" d="M14.9498 14.9497C14.5593 15.3403 13.9261 15.3403 13.5356 14.9497L10 11.4142L6.46451 14.9497C6.07398 15.3403 5.44082 15.3403 5.05029 14.9497C4.65977 14.5592 4.65977 13.9261 5.05029 13.5355L8.58583 10L5.05029 6.46447C4.65977 6.07394 4.65977 5.44078 5.05029 5.05025C5.44082 4.65973 6.07398 4.65973 6.46451 5.05025L10 8.58579L13.5356 5.05025C13.9261 4.65973 14.5593 4.65973 14.9498 5.05025C15.3403 5.44078 15.3403 6.07394 14.9498 6.46447L11.4143 10L14.9498 13.5355C15.3403 13.9261 15.3403 14.5592 14.9498 14.9497Z" fill="#F8F6FF"/>
</svg>
