<svg width="28" height="28" viewBox="0 0 28 28" fill="none" xmlns="http://www.w3.org/2000/svg">
    <circle cx="14" cy="14" r="13" stroke="#6E4AFF" stroke-width="2"/>
    <path d="M10.854 7.63306L8.0758 19.6668" stroke="#6E4AFF" stroke-width="2" stroke-linecap="round" stroke-linejoin="round"/>
    <path d="M9.24188 14.6152L10.6989 14.4989C11.3029 14.4509 11.9148 14.5356 12.4866 14.7461C13.0583 14.9567 13.5744 15.2874 13.9942 15.7124C14.4138 16.1365 14.9292 16.4665 15.5001 16.6767C16.0711 16.8869 16.682 16.9716 17.2852 16.924L18.742 16.8085L20.3573 9.81207L18.9003 9.92843C18.297 9.97583 17.6861 9.89104 17.1152 9.6807C16.5443 9.47035 16.0289 9.14015 15.6095 8.71595C15.19 8.29159 14.6745 7.96128 14.1034 7.75089C13.5323 7.5405 12.9212 7.45575 12.3178 7.50326L10.8608 7.61962L9.24188 14.6152Z" stroke="#6E4AFF" stroke-width="2" stroke-linecap="round" stroke-linejoin="round"/>
</svg>
