<svg width="28" height="28" viewBox="0 0 28 28" fill="none" xmlns="http://www.w3.org/2000/svg">
    <path fill-rule="evenodd" clip-rule="evenodd" d="M19.1925 19.1924C18.8019 19.5829 18.1688 19.5829 17.7782 19.1924L14.2427 15.6568L10.7071 19.1924C10.3166 19.5829 9.68342 19.5829 9.29289 19.1924C8.90237 18.8019 8.90237 18.1687 9.29289 17.7782L12.8285 14.2426L9.29296 10.7071C8.90244 10.3166 8.90244 9.68342 9.29296 9.29289C9.68349 8.90237 10.3167 8.90237 10.7072 9.29289L14.2427 12.8284L17.7782 9.29289C18.1687 8.90237 18.8019 8.90237 19.1924 9.29289C19.5829 9.68342 19.5829 10.3166 19.1924 10.7071L15.6569 14.2426L19.1925 17.7782C19.583 18.1687 19.583 18.8019 19.1925 19.1924Z" fill="#6E4AFF"/>
    <circle cx="14" cy="14" r="13" stroke="#6E4AFF" stroke-width="2"/>
</svg>
