<svg width="28" height="28" viewBox="0 0 28 28" fill="none" xmlns="http://www.w3.org/2000/svg">
    <rect x="1" y="1" width="26" height="26" rx="13" stroke="#6E4AFF" stroke-width="2"/>
    <path fill-rule="evenodd" clip-rule="evenodd" d="M20.125 9.625H13.8506C13.4903 8.60546 12.5179 7.875 11.375 7.875C10.2321 7.875 9.25972 8.60546 8.89937 9.625H7.875C7.39175 9.625 7 10.0168 7 10.5C7 10.9832 7.39175 11.375 7.875 11.375H8.89937C9.25972 12.3945 10.2321 13.125 11.375 13.125C12.5179 13.125 13.4903 12.3945 13.8506 11.375H20.125C20.6082 11.375 21 10.9832 21 10.5C21 10.0168 20.6082 9.625 20.125 9.625ZM11.375 11.375C11.8582 11.375 12.25 10.9832 12.25 10.5C12.25 10.0168 11.8582 9.625 11.375 9.625C10.8918 9.625 10.5 10.0168 10.5 10.5C10.5 10.9832 10.8918 11.375 11.375 11.375Z" fill="#6E4AFF"/>
    <path fill-rule="evenodd" clip-rule="evenodd" d="M20.125 16.625H19.1006C18.7403 15.6055 17.7679 14.875 16.625 14.875C15.4821 14.875 14.5097 15.6055 14.1494 16.625H7.875C7.39175 16.625 7 17.0168 7 17.5C7 17.9832 7.39175 18.375 7.875 18.375H14.1494C14.5097 19.3945 15.4821 20.125 16.625 20.125C17.7679 20.125 18.7403 19.3945 19.1006 18.375H20.125C20.6082 18.375 21 17.9832 21 17.5C21 17.0168 20.6082 16.625 20.125 16.625ZM16.625 18.375C17.1082 18.375 17.5 17.9832 17.5 17.5C17.5 17.0168 17.1082 16.625 16.625 16.625C16.1418 16.625 15.75 17.0168 15.75 17.5C15.75 17.9832 16.1418 18.375 16.625 18.375Z" fill="#6E4AFF"/>
    <circle cx="14" cy="14" r="13" stroke="#6E4AFF" stroke-width="2"/>
</svg>
