<svg width="40" height="40" viewBox="0 0 40 40" fill="none" xmlns="http://www.w3.org/2000/svg">
<circle cx="20" cy="20" r="19" stroke="#6E4AFF" stroke-width="2"/>
<path d="M14.35 19.2C13.9082 18.8686 13.2814 18.9582 12.95 19.4C12.6186 19.8418 12.7082 20.4686 13.15 20.8L14.35 19.2ZM18.75 23.75L18.15 24.55C18.5759 24.8694 19.1774 24.7992 19.5182 24.3902L18.75 23.75ZM25.7682 16.8902C26.1218 16.4659 26.0645 15.8353 25.6402 15.4818C25.2159 15.1282 24.5853 15.1855 24.2318 15.6098L25.7682 16.8902ZM13.15 20.8L18.15 24.55L19.35 22.95L14.35 19.2L13.15 20.8ZM19.5182 24.3902L25.7682 16.8902L24.2318 15.6098L17.9818 23.1098L19.5182 24.3902Z" fill="#6E4AFF"/>
</svg>
